<svg width="25" height="30" viewBox="0 0 50 53" fill="none" xmlns="http://www.w3.org/2000/svg">
<path d="M47.9167 28.6625H2.08333C0.933329 28.6625 0 27.6732 0 26.4542C0 25.2352 0.933329 24.2458 2.08333 24.2458H47.9167C49.0667 24.2458 50 25.2352 50 26.4542C50 27.6732 49.0667 28.6625 47.9167 28.6625Z" fill="white"/>
<path d="M47.9167 11.7318H2.08333C0.933329 11.7318 0 10.7425 0 9.52346C0 8.30445 0.933329 7.31512 2.08333 7.31512H47.9167C49.0667 7.31512 50 8.30445 50 9.52346C50 10.7425 49.0667 11.7318 47.9167 11.7318Z" fill="white"/>
<path d="M47.9167 45.5927H2.08333C0.933329 45.5927 0 44.6034 0 43.3844C0 42.1654 0.933329 41.176 2.08333 41.176H47.9167C49.0667 41.176 50 42.1654 50 43.3844C50 44.6034 49.0667 45.5927 47.9167 45.5927Z" fill="white"/>
</svg>
